<?xml version="1.0" encoding="utf-8"?>
<!-- Generator: Adobe Illustrator 16.0.0, SVG Export Plug-In . SVG Version: 6.00 Build 0)  -->
<!DOCTYPE svg PUBLIC "-//W3C//DTD SVG 1.1//EN" "http://www.w3.org/Graphics/SVG/1.1/DTD/svg11.dtd">
<svg version="1.1" id="Layer_1" xmlns="http://www.w3.org/2000/svg" xmlns:xlink="http://www.w3.org/1999/xlink" x="0px" y="0px"
	 width="76.49px" height="76.49px" viewBox="0 0 76.49 76.49" enable-background="new 0 0 76.49 76.49" xml:space="preserve">
<g id="NEW">
	<g>
		<path fill="#7AC5E2" d="M31.706,39.704h1.617v5.039v3.164h-1.617v-4.102l-3.328-1.922v6.023h-1.617v-8.203h1.617v0.316
			l3.328,1.922V39.704z"/>
		<path fill="#7AC5E2" d="M36.581,46.29h3.305v1.617h-3.305h-1.617v-8.203h1.617h3.07v1.617h-3.07v1.523h3.305v1.617h-3.305V46.29z"
			/>
		<path fill="#7AC5E2" d="M49.729,47.907h-2.285l-1.816-1.816l-1.816,1.816h-2.285v-8.203h1.617v6.586l1.676-1.676v-1.77h1.617v1.77
			l1.676,1.676v-6.586h1.617V47.907z"/>
	</g>
	<g>
		
			<path fill="none" stroke="#7AC5E2" stroke-width="3.5" stroke-linecap="round" stroke-linejoin="round" stroke-miterlimit="10" d="
			M38.245,21.595H25.596c-2.2,0-4,1.8-4,4v25.3c0,2.2,1.8,4,4,4h25.299c2.2,0,4-1.8,4-4v-12.65"/>
	</g>
	
		<line fill="none" stroke="#7AC5E2" stroke-width="3.5" stroke-linecap="round" stroke-linejoin="round" stroke-miterlimit="10" x1="45.562" y1="25.261" x2="56.895" y2="25.261"/>
	
		<line fill="none" stroke="#7AC5E2" stroke-width="3.5" stroke-linecap="round" stroke-linejoin="round" stroke-miterlimit="10" x1="51.228" y1="19.595" x2="51.228" y2="30.928"/>
</g>
</svg>
